{"title":"Pacific Rim 2013 HDCAM x264 AAC-KiSSMYACE","uid":8807038,"size":1472218693,"categoryP":"video","categoryS":"movies","magnet":"?xt=urn:btih:eb8e05a9f894e2068eb1c3b63f874dff099fc017&amp;dn=Pacific+Rim+2013+HDCAM+x264+AAC-KiSSMYACE&amp;tr=udp%3A%2F%2Ftracker.openbittorrent.com%3A80&amp;tr=udp%3A%2F%2Fopen.demonii.com%3A1337&amp;tr=udp%3A%2F%2Ftracker.coppersurfer.tk%3A6969&amp;tr=udp%3A%2F%2Fexodus.desync.com%3A6969","seeders":2,"leechers":1,"uploader":".BONE.","files":-1,"time":1376361652,"description":"[img]http://www.ultraimg.com/images/ovmeH.jpg[/img]\n\n\nSource: SmY [THANKS]\n\nNotes: Cropped the bottom line of subs, resized then messed with contrast, saturation, gamma, brightness, sharpen.\n\nAudio is mint and in sync\n &lt;a href=&quot;\nhttp://www.imdb.com/title/tt1663662/&quot; rel=&quot;nofollow&quot; target=&quot;_NEW&quot;&gt;\nhttp://www.imdb.com/title/tt1663662/&lt;/a&gt;\n\nAs a war between humankind and monstrous sea creatures wages on, a former pilot and a trainee are paired up to drive a seemingly obsolete special weapon in a desperate effort to save the world from the apocalypse.\n\nGeneral\nComplete name                            : Pacific Rim 2013 HDCAM x264 AAC-KiSSMYACE.mp4\nFormat                                   : MPEG-4\nFormat profile                           : Base Media\nCodec ID                                 : isom\nFile size                                : 1.36 GiB\nDuration                                 : 2h 1mn\nOverall bit rate mode                    : Variable\nOverall bit rate                         : 1 603 Kbps\nEncoded date                             : UTC 2013-08-12 23:14:14\nTagged date                              : UTC 2013-08-12 23:14:14\n\nVideo\nID                                       : 1\nFormat                                   : AVC\nFormat/Info                              : Advanced Video Codec\nFormat profile                           : &lt;a class=&quot;__cf_email__&quot; href=&quot;/cdn-cgi/l/email-protection&quot; data-cfemail=&quot;5c14353b341c1068726d&quot;&gt;[email&amp;#160;protected]&lt;/a&gt;&lt;script cf-hash='f9e31' type=&quot;text/javascript&quot;&gt;\n/* &lt;![CDATA[ */!function(){try{var t=&quot;currentScript&quot;in document?document.currentScript:function(){for(var t=document.getElementsByTagName(&quot;script&quot;),e=t.length;e--;)if(t[e].getAttribute(&quot;cf-hash&quot;))return t[e]}();if(t&amp;&amp;t.previousSibling){var e,r,n,i,c=t.previousSibling,a=c.getAttribute(&quot;data-cfemail&quot;);if(a){for(e=&quot;&quot;,r=parseInt(a.substr(0,2),16),n=2;a.length-n;n+=2)i=parseInt(a.substr(n,2),16)^r,e+=String.fromCharCode(i);e=document.createTextNode(e),c.parentNode.replaceChild(e,c)}}}catch(u){}}();/* ]]&gt; */&lt;/script&gt;\nFormat settings, CABAC                   : Yes\nFormat settings, ReFrames                : 3 frames\nCodec ID                                 : avc1\nCodec ID/Info                            : Advanced Video Coding\nDuration                                 : 2h 1mn\nBit rate mode                            : Variable\nBit rate                                 : 1 465 Kbps\nMaximum bit rate                         : 40.0 Mbps\nWidth                                    : 720 pixels\nHeight                                   : 328 pixels\nDisplay aspect ratio                     : 2.2:1\nFrame rate mode                          : Constant\nFrame rate                               : 29.970 fps\nColor space                              : YUV\nChroma subsampling                       : 4:2:0\nBit depth                                : 8 bits\nScan type                                : Progressive\nBits/(Pixel*Frame)                       : 0.207\nStream size                              : 1.24 GiB (91%)\nWriting library                          : x264 core 135 r2345 f0c1c53\n\nAudio\nID                                       : 2\nFormat                                   : AAC\nFormat/Info                              : Advanced Audio Codec\nFormat profile                           : LC\nCodec ID                                 : 40\nDuration                                 : 2h 1mn\nBit rate mode                            : Variable\nBit rate                                 : 132 Kbps\nMaximum bit rate                         : 158 Kbps\nChannel(s)                               : 2 channels\nChannel positions                        : Front: L R\nSampling rate                            : 48.0 KHz\nCompression mode                         : Lossy\nStream size                              : 116 MiB (8%)\nLanguage                                 : English\nEncoded date                             : UTC 2013-08-12 21:01:52\nTagged date                              : UTC 2013-08-12 23:15:23","torrent":{"xt":"urn:btih:eb8e05a9f894e2068eb1c3b63f874dff099fc017","amp;dn":"Pacific+Rim+2013+HDCAM+x264+AAC-KiSSMYACE","amp;tr":["udp%3A%2F%2Ftracker.openbittorrent.com%3A80","udp%3A%2F%2Fopen.demonii.com%3A1337","udp%3A%2F%2Ftracker.coppersurfer.tk%3A6969","udp%3A%2F%2Fexodus.desync.com%3A6969"],"infoHash":"eb8e05a9f894e2068eb1c3b63f874dff099fc017","infoHashBuffer":{"type":"Buffer","data":[235,142,5,169,248,148,226,6,142,177,195,182,63,135,77,255,9,159,192,23]},"announce":[],"urlList":[]}}